<svg xmlns="http://www.w3.org/2000/svg" xmlns:xlink="http://www.w3.org/1999/xlink" viewBox="0,0,256,256" width="480px" height="480px"><g fill="none" fill-rule="nonzero" stroke="none" stroke-width="1" stroke-linecap="butt" stroke-linejoin="miter" stroke-miterlimit="10" stroke-dasharray="" stroke-dashoffset="0" font-family="none" font-weight="none" font-size="none" text-anchor="none" style="mix-blend-mode: normal"><g transform="scale(3.2,3.2)"><path d="M7.904,58.665l-0.104,-0.181c-3.263,-5.649 -4.986,-12.102 -4.983,-18.66c0.009,-20.58 16.76,-37.324 37.34,-37.324c9.983,0.003 19.364,3.891 26.413,10.946c7.048,7.054 10.93,16.433 10.93,26.409c-0.01,20.583 -16.76,37.328 -37.34,37.328c-6.247,-0.003 -12.418,-1.574 -17.861,-4.543l-0.174,-0.096l-19.414,5.092z" fill="#f2faff"></path><path d="M40.157,3v0c9.85,0.003 19.105,3.838 26.059,10.799c6.954,6.961 10.784,16.214 10.784,26.056c-0.009,20.307 -16.536,36.828 -36.855,36.828c-6.149,-0.003 -12.237,-1.553 -17.606,-4.482l-0.349,-0.19l-0.384,0.101l-18.384,4.82l4.91,-17.933l0.11,-0.403l-0.209,-0.362c-3.22,-5.574 -4.92,-11.94 -4.917,-18.41c0.01,-20.304 16.536,-36.824 36.841,-36.824M40.157,2c-20.855,0 -37.831,16.969 -37.84,37.824c-0.004,6.666 1.738,13.176 5.05,18.911l-5.367,19.604l20.06,-5.26c5.526,3.015 11.751,4.601 18.084,4.604h0.016c20.855,0 37.831,-16.969 37.84,-37.827c0,-10.108 -3.933,-19.613 -11.077,-26.764c-7.143,-7.15 -16.643,-11.089 -26.766,-11.092z" fill="#788b9c"></path><path d="M39.99,70c-5.009,-0.003 -9.965,-1.263 -14.332,-3.646l-2.867,-1.564l-3.159,0.828l-6.482,1.699l1.659,-6.061l0.907,-3.312l-1.718,-2.974c-2.618,-4.533 -4.001,-9.715 -3.998,-14.984c0.007,-16.533 13.464,-29.984 29.997,-29.986c8.022,0.003 15.558,3.126 21.221,8.793c5.663,5.668 8.782,13.205 8.782,21.218c-0.008,16.536 -13.465,29.989 -30.01,29.989z" fill="#4bca54"></path><path d="M56.561,47.376c-0.9,-0.449 -5.321,-2.626 -6.143,-2.924c-0.825,-0.301 -1.424,-0.449 -2.023,0.449c-0.599,0.9 -2.322,2.924 -2.845,3.523c-0.524,0.599 -1.048,0.674 -1.948,0.226c-0.9,-0.449 -3.797,-1.4 -7.23,-4.462c-2.674,-2.382 -4.478,-5.327 -5.001,-6.227c-0.524,-0.9 -0.057,-1.385 0.394,-1.834c0.403,-0.403 0.9,-1.051 1.349,-1.575c0.449,-0.524 0.599,-0.9 0.9,-1.5c0.301,-0.599 0.151,-1.126 -0.075,-1.575c-0.226,-0.449 -2.023,-4.875 -2.773,-6.673c-0.729,-1.752 -1.472,-1.515 -2.023,-1.542c-0.524,-0.027 -1.123,-0.03 -1.722,-0.03c-0.599,0 -1.575,0.226 -2.397,1.126c-0.822,0.9 -3.147,3.074 -3.147,7.498c0,4.424 3.222,8.699 3.671,9.298c0.449,0.599 6.338,9.678 15.36,13.571c2.144,0.924 3.821,1.478 5.125,1.894c2.153,0.684 4.113,0.587 5.664,0.355c1.728,-0.259 5.321,-2.174 6.067,-4.273c0.75,-2.099 0.75,-3.899 0.524,-4.273c-0.228,-0.377 -0.827,-0.603 -1.727,-1.052z" fill="#ffffff"></path></g></g></svg>